<?xml version="1.0" standalone="no"?>
<!DOCTYPE svg PUBLIC "-//W3C//DTD SVG 20010904//EN"
 "http://www.w3.org/TR/2001/REC-SVG-20010904/DTD/svg10.dtd">
<svg version="1.0" xmlns="http://www.w3.org/2000/svg"
 width="500.000000pt" height="500.000000pt" viewBox="0 0 500.000000 500.000000"
 preserveAspectRatio="xMidYMid meet">

<g transform="translate(0.000000,500.000000) scale(0.100000,-0.100000)"
fill="#000000" stroke="none">
<path d="M857 2956 c-135 -129 -208 -206 -216 -227 -6 -19 -11 -103 -11 -201
0 -190 8 -221 64 -261 29 -20 44 -22 201 -25 190 -4 227 3 270 48 29 31 30 34
35 163 l5 132 52 3 51 3 4 -128 c3 -113 6 -132 25 -159 40 -56 72 -64 257 -64
185 0 215 7 259 59 l27 33 0 191 c0 106 -3 202 -6 214 -5 19 -384 385 -421
407 -22 12 -37 -9 -58 -82 -13 -44 -15 -66 -8 -73 19 -19 47 -5 57 29 5 17 12
32 16 32 4 0 60 -52 126 -115 l119 -114 -450 -1 -450 0 125 119 125 119 13
-39 c11 -30 19 -39 37 -39 33 0 35 17 13 90 -18 59 -31 79 -49 80 -4 0 -99
-88 -212 -194z m255 -225 l33 -29 3 -155 c4 -174 -7 -219 -53 -237 -38 -14
-331 -13 -358 2 -44 23 -46 35 -47 213 0 183 5 206 54 225 11 5 92 9 178 9
l158 1 32 -29z m214 7 c-4 -13 -9 -38 -13 -56 -6 -33 -6 -33 -57 -30 -49 3
-51 4 -57 38 -3 19 -10 43 -14 53 -6 15 0 17 70 17 75 0 77 -1 71 -22z m449
10 c47 -21 55 -53 55 -218 0 -160 -9 -198 -49 -220 -11 -6 -91 -10 -186 -10
l-167 0 -29 29 -29 29 0 169 c0 180 6 204 54 223 33 14 321 12 351 -2z"/>
<path d="M3803 2661 c-63 -29 -98 -88 -98 -165 0 -110 69 -181 175 -181 95 0
163 61 176 157 20 146 -119 249 -253 189z m142 -93 c23 -28 27 -39 22 -81 -6
-63 -33 -92 -87 -92 -59 0 -85 30 -85 99 0 70 29 106 86 106 30 0 43 -7 64
-32z"/>
<path d="M4195 2666 c-56 -24 -105 -103 -105 -170 0 -40 25 -98 57 -131 104
-107 283 -36 283 113 l0 43 -82 -3 c-82 -3 -83 -3 -86 -30 -3 -27 -1 -28 37
-28 34 0 41 -3 41 -19 0 -49 -85 -67 -125 -27 -60 61 -37 167 43 191 15 4 35
0 59 -15 l36 -21 25 24 c29 30 23 43 -32 68 -48 22 -108 24 -151 5z"/>
<path d="M2300 2658 c0 -7 -7 -78 -15 -158 -20 -196 -22 -180 24 -180 38 0 38
0 45 46 3 26 6 66 6 90 0 23 3 45 8 48 4 2 22 -38 41 -90 29 -82 36 -94 56
-94 20 0 27 12 54 86 17 47 31 89 31 95 0 5 5 9 10 9 6 0 10 -22 10 -49 0 -26
3 -69 6 -95 7 -46 7 -46 45 -46 46 0 44 -14 24 190 -8 80 -15 148 -15 153 0 4
-20 7 -44 7 l-44 0 -37 -95 c-20 -52 -38 -95 -40 -95 -1 0 -19 43 -40 95 l-37
95 -44 0 c-28 0 -44 -4 -44 -12z"/>
<path d="M2735 2573 l65 -98 0 -77 0 -78 40 0 40 0 0 80 0 81 60 89 c33 49 60
92 60 95 0 3 -20 5 -45 5 -43 0 -46 -2 -77 -50 -18 -27 -36 -50 -39 -50 -4 0
-21 23 -39 50 -31 49 -33 50 -81 50 l-49 0 65 -97z"/>
<path d="M3170 2494 l0 -176 95 4 c87 3 97 5 121 30 20 20 27 36 27 67 0 43
-24 81 -50 81 -17 0 -17 15 2 30 9 8 15 29 15 55 0 66 -30 85 -131 85 l-79 0
0 -176z m129 99 c12 -23 -4 -53 -29 -53 -16 0 -20 7 -20 35 0 28 4 35 20 35
10 0 23 -8 29 -17z m23 -147 c22 -32 -5 -66 -51 -66 -18 0 -21 6 -21 46 l0 46
33 -7 c17 -4 35 -13 39 -19z"/>
<path d="M3460 2495 l0 -175 105 0 105 0 0 35 0 35 -65 0 -65 0 0 140 0 140
-40 0 -40 0 0 -175z"/>
<path d="M1895 2090 c-4 -7 -3 -16 3 -22 14 -14 45 -2 40 15 -6 16 -34 21 -43
7z"/>
<path d="M3395 2090 c-4 -7 -3 -16 3 -22 14 -14 45 -2 40 15 -6 16 -34 21 -43
7z"/>
<path d="M1480 2000 c0 -83 1 -90 20 -90 19 0 20 7 20 90 0 83 -1 90 -20 90
-19 0 -20 -7 -20 -90z"/>
<path d="M2610 2000 c0 -83 1 -90 20 -90 19 0 20 7 20 90 0 83 -1 90 -20 90
-19 0 -20 -7 -20 -90z"/>
<path d="M3720 2062 c0 -26 -3 -28 -33 -24 -43 5 -67 -18 -67 -62 0 -47 25
-65 88 -64 l52 0 0 89 c0 82 -1 89 -20 89 -15 0 -20 -7 -20 -28z m-6 -75 c16
-25 -16 -56 -38 -37 -19 15 -20 32 -4 48 15 15 28 11 42 -11z"/>
<path d="M4050 2062 c0 -26 -3 -28 -33 -24 -43 5 -67 -18 -67 -62 0 -47 25
-65 88 -64 l52 0 0 89 c0 82 -1 89 -20 89 -15 0 -20 -7 -20 -28z m-6 -75 c16
-25 -16 -56 -38 -37 -19 15 -20 32 -4 48 15 15 28 11 42 -11z"/>
<path d="M670 2065 c0 -9 9 -15 25 -15 24 0 25 -2 25 -70 0 -63 2 -70 20 -70
17 0 19 8 22 68 3 65 4 67 31 70 15 2 27 9 27 18 0 11 -17 14 -75 14 -60 0
-75 -3 -75 -15z"/>
<path d="M2433 2002 c-18 -42 -33 -80 -33 -85 0 -14 41 -7 46 8 4 10 20 15 44
15 24 0 40 -5 44 -15 3 -8 15 -15 27 -15 24 0 24 -4 -19 102 -23 59 -30 68
-52 68 -22 0 -29 -11 -57 -78z m70 -2 c4 -15 0 -20 -15 -20 -14 0 -18 5 -14
16 3 9 6 20 6 25 0 17 17 1 23 -21z"/>
<path d="M3010 2055 c0 -8 -4 -15 -10 -15 -5 0 -10 -7 -10 -15 0 -8 4 -15 9
-15 6 0 11 -21 13 -47 3 -42 6 -48 26 -51 13 -2 30 -1 38 2 16 6 8 36 -9 33
-7 -1 -13 13 -15 31 -3 27 0 32 17 32 27 0 27 20 1 27 -11 3 -20 12 -20 19 0
8 -9 14 -20 14 -11 0 -20 -7 -20 -15z"/>
<path d="M846 2018 c-22 -31 -20 -64 4 -88 23 -23 82 -27 99 -6 15 18 -1 30
-29 21 -11 -3 -25 -3 -32 2 -8 5 4 10 32 13 41 5 45 7 42 29 -4 37 -21 51 -63
51 -28 0 -42 -6 -53 -22z m74 -18 c0 -5 -9 -10 -20 -10 -11 0 -20 5 -20 10 0
6 9 10 20 10 11 0 20 -4 20 -10z"/>
<path d="M1007 2022 c-22 -25 -21 -75 1 -95 22 -20 75 -22 91 -3 14 17 -10 41
-26 25 -18 -18 -44 1 -41 30 2 21 8 26 28 24 41 -3 54 5 40 22 -17 21 -73 19
-93 -3z"/>
<path d="M1140 1974 c0 -57 2 -64 20 -64 16 0 20 7 20 34 0 35 24 71 41 61 5
-4 9 -26 9 -51 0 -40 2 -44 25 -44 23 0 25 4 25 46 0 73 -10 83 -80 82 l-60
-1 0 -63z"/>
<path d="M1316 2018 c-35 -50 -4 -108 57 -108 47 0 72 30 68 82 -3 49 -96 68
-125 26z m82 -39 c2 -18 -3 -29 -15 -33 -25 -10 -46 20 -32 46 14 27 43 19 47
-13z"/>
<path d="M1566 2018 c-35 -50 -4 -108 57 -108 47 0 72 30 68 82 -3 49 -96 68
-125 26z m82 -39 c2 -18 -3 -29 -15 -33 -25 -10 -46 20 -32 46 14 27 43 19 47
-13z"/>
<path d="M1725 2017 c-19 -28 -19 -47 1 -76 13 -18 24 -22 50 -19 34 4 44 -4
23 -18 -7 -4 -26 -7 -42 -8 -37 -1 -47 -21 -15 -30 78 -21 108 7 108 103 l0
69 -55 1 c-45 0 -57 -4 -70 -22z m79 -22 c8 -22 -4 -45 -24 -45 -20 0 -32 23
-24 45 4 8 14 15 24 15 10 0 20 -7 24 -15z"/>
<path d="M1890 1975 c0 -58 2 -65 20 -65 18 0 20 7 20 65 0 58 -2 65 -20 65
-18 0 -20 -7 -20 -65z"/>
<path d="M1983 2034 c-23 -10 -2 -30 26 -26 16 2 32 -1 35 -7 5 -7 -4 -11 -23
-11 -16 0 -37 -7 -45 -16 -19 -18 -19 -20 -6 -44 8 -16 21 -19 65 -19 l55 1 0
52 c0 29 -5 57 -12 64 -12 12 -71 15 -95 6z m67 -73 c0 -15 -19 -23 -38 -16
-14 5 -14 7 -2 15 19 12 40 13 40 1z"/>
<path d="M2196 2018 c-22 -31 -20 -64 4 -88 23 -23 82 -27 99 -6 15 18 -1 30
-29 21 -11 -3 -25 -3 -32 2 -8 5 4 10 32 13 41 5 45 7 42 29 -4 37 -21 51 -63
51 -28 0 -42 -6 -53 -22z m74 -18 c0 -5 -9 -10 -20 -10 -11 0 -20 5 -20 10 0
6 9 10 20 10 11 0 20 -4 20 -10z"/>
<path d="M2709 2030 c-34 -20 -31 -88 5 -112 18 -13 73 -9 85 5 15 19 4 27
-29 21 -15 -4 -31 -1 -34 5 -5 7 8 11 38 11 51 0 60 16 30 58 -16 24 -65 30
-95 12z m66 -30 c4 -6 -5 -10 -19 -10 -14 0 -26 5 -26 10 0 6 9 10 19 10 11 0
23 -4 26 -10z"/>
<path d="M2855 2030 c-11 -18 3 -27 35 -22 18 2 30 0 30 -7 0 -6 -13 -11 -29
-11 -34 0 -54 -20 -49 -52 3 -21 9 -23 61 -25 l57 -2 0 53 c0 28 -5 57 -12 64
-15 15 -84 16 -93 2z m65 -75 c0 -8 -9 -15 -20 -15 -20 0 -26 11 -13 23 12 13
33 7 33 -8z"/>
<path d="M3127 2022 c-22 -25 -21 -75 1 -95 25 -23 78 -21 102 3 24 24 26 57
4 88 -20 28 -83 31 -107 4z m77 -34 c14 -22 -12 -52 -37 -42 -17 6 -23 44 -10
58 11 11 35 3 47 -16z"/>
<path d="M3280 1974 c0 -57 2 -64 20 -64 17 0 20 7 20 40 0 34 4 42 25 50 42
16 31 37 -20 38 l-45 0 0 -64z"/>
<path d="M3390 1975 c0 -58 2 -65 20 -65 18 0 20 7 20 65 0 58 -2 65 -20 65
-18 0 -20 -7 -20 -65z"/>
<path d="M3489 2030 c-34 -20 -31 -88 5 -112 18 -13 73 -9 85 5 15 19 4 27
-29 21 -15 -4 -31 -1 -34 5 -5 7 8 11 38 11 51 0 60 16 30 58 -16 24 -65 30
-95 12z m66 -30 c4 -6 -5 -10 -19 -10 -14 0 -26 5 -26 10 0 6 9 10 19 10 11 0
23 -4 26 -10z"/>
<path d="M3813 2034 c-23 -10 -2 -30 26 -26 16 2 32 -1 35 -7 5 -7 -4 -11 -23
-11 -16 0 -37 -7 -45 -16 -19 -18 -19 -20 -6 -44 8 -16 21 -19 65 -19 l55 1 0
52 c0 29 -5 57 -12 64 -12 12 -71 15 -95 6z m67 -73 c0 -15 -19 -23 -38 -16
-14 5 -14 7 -2 15 19 12 40 13 40 1z"/>
<path d="M4149 2030 c-34 -20 -31 -88 5 -112 18 -13 73 -9 85 5 15 19 4 27
-29 21 -15 -4 -31 -1 -34 5 -5 7 8 11 38 11 51 0 60 16 30 58 -16 24 -65 30
-95 12z m66 -30 c4 -6 -5 -10 -19 -10 -14 0 -26 5 -26 10 0 6 9 10 19 10 11 0
23 -4 26 -10z"/>
<path d="M4289 2024 c-15 -19 -3 -43 30 -60 38 -19 37 -27 -1 -20 -30 5 -38 4
-38 -7 0 -29 78 -38 100 -12 19 23 8 49 -30 68 l-35 18 32 -4 c30 -3 50 12 36
27 -13 13 -81 5 -94 -10z"/>
</g>
</svg>
